<mxfile host="Electron" agent="Mozilla/5.0 (Windows NT 10.0; Win64; x64) AppleWebKit/537.36 (KHTML, like Gecko) draw.io/28.2.7 Chrome/138.0.7204.251 Electron/37.7.1 Safari/537.36" version="28.2.7">
  <diagram id="C5RBs43oDa-KdzZeNtuy" name="Page-1">
    <mxGraphModel dx="2620" dy="1873" grid="1" gridSize="10" guides="1" tooltips="1" connect="1" arrows="1" fold="1" page="1" pageScale="1" pageWidth="3300" pageHeight="4681" math="0" shadow="0">
      <root>
        <mxCell id="WIyWlLk6GJQsqaUBKTNV-0" />
        <mxCell id="WIyWlLk6GJQsqaUBKTNV-1" parent="WIyWlLk6GJQsqaUBKTNV-0" />
        <mxCell id="eOQ8HIZeuh8u5lp4IAcC-0" value="Class Diagram" style="text;html=1;whiteSpace=wrap;strokeColor=none;fillColor=none;align=center;verticalAlign=middle;rounded=0;" vertex="1" parent="WIyWlLk6GJQsqaUBKTNV-1">
          <mxGeometry x="1600" y="90" width="120" height="30" as="geometry" />
        </mxCell>
        <mxCell id="eOQ8HIZeuh8u5lp4IAcC-2" value="&amp;lt;&amp;lt;interface&amp;gt;&amp;gt;&lt;div&gt;LogAppender&lt;/div&gt;" style="swimlane;fontStyle=1;align=center;verticalAlign=top;childLayout=stackLayout;horizontal=1;startSize=40;horizontalStack=0;resizeParent=1;resizeParentMax=0;resizeLast=0;collapsible=1;marginBottom=0;whiteSpace=wrap;html=1;" vertex="1" parent="WIyWlLk6GJQsqaUBKTNV-1">
          <mxGeometry x="1150" y="360" width="260" height="74" as="geometry" />
        </mxCell>
        <mxCell id="eOQ8HIZeuh8u5lp4IAcC-4" value="" style="line;strokeWidth=1;fillColor=none;align=left;verticalAlign=middle;spacingTop=-1;spacingLeft=3;spacingRight=3;rotatable=0;labelPosition=right;points=[];portConstraint=eastwest;strokeColor=inherit;" vertex="1" parent="eOQ8HIZeuh8u5lp4IAcC-2">
          <mxGeometry y="40" width="260" height="8" as="geometry" />
        </mxCell>
        <mxCell id="eOQ8HIZeuh8u5lp4IAcC-5" value="+ appendLog(message: Message)" style="text;strokeColor=none;fillColor=none;align=left;verticalAlign=top;spacingLeft=4;spacingRight=4;overflow=hidden;rotatable=0;points=[[0,0.5],[1,0.5]];portConstraint=eastwest;whiteSpace=wrap;html=1;" vertex="1" parent="eOQ8HIZeuh8u5lp4IAcC-2">
          <mxGeometry y="48" width="260" height="26" as="geometry" />
        </mxCell>
        <mxCell id="eOQ8HIZeuh8u5lp4IAcC-6" value="ConsoleAppender" style="swimlane;fontStyle=1;align=center;verticalAlign=top;childLayout=stackLayout;horizontal=1;startSize=26;horizontalStack=0;resizeParent=1;resizeParentMax=0;resizeLast=0;collapsible=1;marginBottom=0;whiteSpace=wrap;html=1;" vertex="1" parent="WIyWlLk6GJQsqaUBKTNV-1">
          <mxGeometry x="990" y="520" width="160" height="60" as="geometry" />
        </mxCell>
        <mxCell id="eOQ8HIZeuh8u5lp4IAcC-7" value="- lock: Lock" style="text;strokeColor=none;fillColor=none;align=left;verticalAlign=top;spacingLeft=4;spacingRight=4;overflow=hidden;rotatable=0;points=[[0,0.5],[1,0.5]];portConstraint=eastwest;whiteSpace=wrap;html=1;" vertex="1" parent="eOQ8HIZeuh8u5lp4IAcC-6">
          <mxGeometry y="26" width="160" height="26" as="geometry" />
        </mxCell>
        <mxCell id="eOQ8HIZeuh8u5lp4IAcC-8" value="" style="line;strokeWidth=1;fillColor=none;align=left;verticalAlign=middle;spacingTop=-1;spacingLeft=3;spacingRight=3;rotatable=0;labelPosition=right;points=[];portConstraint=eastwest;strokeColor=inherit;" vertex="1" parent="eOQ8HIZeuh8u5lp4IAcC-6">
          <mxGeometry y="52" width="160" height="8" as="geometry" />
        </mxCell>
        <mxCell id="eOQ8HIZeuh8u5lp4IAcC-10" value="" style="endArrow=block;dashed=1;endFill=0;endSize=12;html=1;rounded=0;exitX=0.5;exitY=0;exitDx=0;exitDy=0;entryX=0.255;entryY=0.99;entryDx=0;entryDy=0;entryPerimeter=0;" edge="1" parent="WIyWlLk6GJQsqaUBKTNV-1" source="eOQ8HIZeuh8u5lp4IAcC-6" target="eOQ8HIZeuh8u5lp4IAcC-5">
          <mxGeometry width="160" relative="1" as="geometry">
            <mxPoint x="1020" y="490" as="sourcePoint" />
            <mxPoint x="1180" y="490" as="targetPoint" />
          </mxGeometry>
        </mxCell>
        <mxCell id="eOQ8HIZeuh8u5lp4IAcC-11" value="FileAppender" style="swimlane;fontStyle=1;align=center;verticalAlign=top;childLayout=stackLayout;horizontal=1;startSize=26;horizontalStack=0;resizeParent=1;resizeParentMax=0;resizeLast=0;collapsible=1;marginBottom=0;whiteSpace=wrap;html=1;" vertex="1" parent="WIyWlLk6GJQsqaUBKTNV-1">
          <mxGeometry x="1240" y="520" width="370" height="164" as="geometry" />
        </mxCell>
        <mxCell id="eOQ8HIZeuh8u5lp4IAcC-12" value="- writer: PrintWriter" style="text;strokeColor=none;fillColor=none;align=left;verticalAlign=top;spacingLeft=4;spacingRight=4;overflow=hidden;rotatable=0;points=[[0,0.5],[1,0.5]];portConstraint=eastwest;whiteSpace=wrap;html=1;" vertex="1" parent="eOQ8HIZeuh8u5lp4IAcC-11">
          <mxGeometry y="26" width="370" height="26" as="geometry" />
        </mxCell>
        <mxCell id="eOQ8HIZeuh8u5lp4IAcC-15" value="- queue: Dequeue&amp;lt;Message&amp;gt;" style="text;strokeColor=none;fillColor=none;align=left;verticalAlign=top;spacingLeft=4;spacingRight=4;overflow=hidden;rotatable=0;points=[[0,0.5],[1,0.5]];portConstraint=eastwest;whiteSpace=wrap;html=1;" vertex="1" parent="eOQ8HIZeuh8u5lp4IAcC-11">
          <mxGeometry y="52" width="370" height="26" as="geometry" />
        </mxCell>
        <mxCell id="eOQ8HIZeuh8u5lp4IAcC-16" value="- worker: Thread" style="text;strokeColor=none;fillColor=none;align=left;verticalAlign=top;spacingLeft=4;spacingRight=4;overflow=hidden;rotatable=0;points=[[0,0.5],[1,0.5]];portConstraint=eastwest;whiteSpace=wrap;html=1;" vertex="1" parent="eOQ8HIZeuh8u5lp4IAcC-11">
          <mxGeometry y="78" width="370" height="26" as="geometry" />
        </mxCell>
        <mxCell id="eOQ8HIZeuh8u5lp4IAcC-17" value="- running: boolean" style="text;strokeColor=none;fillColor=none;align=left;verticalAlign=top;spacingLeft=4;spacingRight=4;overflow=hidden;rotatable=0;points=[[0,0.5],[1,0.5]];portConstraint=eastwest;whiteSpace=wrap;html=1;" vertex="1" parent="eOQ8HIZeuh8u5lp4IAcC-11">
          <mxGeometry y="104" width="370" height="26" as="geometry" />
        </mxCell>
        <mxCell id="eOQ8HIZeuh8u5lp4IAcC-13" value="" style="line;strokeWidth=1;fillColor=none;align=left;verticalAlign=middle;spacingTop=-1;spacingLeft=3;spacingRight=3;rotatable=0;labelPosition=right;points=[];portConstraint=eastwest;strokeColor=inherit;" vertex="1" parent="eOQ8HIZeuh8u5lp4IAcC-11">
          <mxGeometry y="130" width="370" height="8" as="geometry" />
        </mxCell>
        <mxCell id="eOQ8HIZeuh8u5lp4IAcC-14" value="&lt;u&gt;+ createFileIfNotExist(filePath: String, clearExistingLogs: boolean)&lt;/u&gt;" style="text;strokeColor=none;fillColor=none;align=left;verticalAlign=top;spacingLeft=4;spacingRight=4;overflow=hidden;rotatable=0;points=[[0,0.5],[1,0.5]];portConstraint=eastwest;whiteSpace=wrap;html=1;" vertex="1" parent="eOQ8HIZeuh8u5lp4IAcC-11">
          <mxGeometry y="138" width="370" height="26" as="geometry" />
        </mxCell>
        <mxCell id="eOQ8HIZeuh8u5lp4IAcC-18" value="" style="endArrow=block;dashed=1;endFill=0;endSize=12;html=1;rounded=0;exitX=0.5;exitY=0;exitDx=0;exitDy=0;entryX=0.583;entryY=1.051;entryDx=0;entryDy=0;entryPerimeter=0;" edge="1" parent="WIyWlLk6GJQsqaUBKTNV-1" source="eOQ8HIZeuh8u5lp4IAcC-11" target="eOQ8HIZeuh8u5lp4IAcC-5">
          <mxGeometry width="160" relative="1" as="geometry">
            <mxPoint x="1250" y="490" as="sourcePoint" />
            <mxPoint x="1410" y="490" as="targetPoint" />
          </mxGeometry>
        </mxCell>
        <mxCell id="eOQ8HIZeuh8u5lp4IAcC-19" value="&amp;lt;&amp;lt;abstract&amp;gt;&amp;gt;&lt;div&gt;LogHandler&lt;/div&gt;" style="swimlane;fontStyle=1;align=center;verticalAlign=top;childLayout=stackLayout;horizontal=1;startSize=40;horizontalStack=0;resizeParent=1;resizeParentMax=0;resizeLast=0;collapsible=1;marginBottom=0;whiteSpace=wrap;html=1;" vertex="1" parent="WIyWlLk6GJQsqaUBKTNV-1">
          <mxGeometry x="2310" y="358.5" width="360" height="334" as="geometry" />
        </mxCell>
        <mxCell id="eOQ8HIZeuh8u5lp4IAcC-20" value="&lt;u&gt;- LOG_LEVEL: String&lt;/u&gt;" style="text;strokeColor=none;fillColor=none;align=left;verticalAlign=top;spacingLeft=4;spacingRight=4;overflow=hidden;rotatable=0;points=[[0,0.5],[1,0.5]];portConstraint=eastwest;whiteSpace=wrap;html=1;" vertex="1" parent="eOQ8HIZeuh8u5lp4IAcC-19">
          <mxGeometry y="40" width="360" height="26" as="geometry" />
        </mxCell>
        <mxCell id="eOQ8HIZeuh8u5lp4IAcC-23" value="&lt;u&gt;- CONFIG_ROOT: Stirng&lt;/u&gt;" style="text;strokeColor=none;fillColor=none;align=left;verticalAlign=top;spacingLeft=4;spacingRight=4;overflow=hidden;rotatable=0;points=[[0,0.5],[1,0.5]];portConstraint=eastwest;whiteSpace=wrap;html=1;" vertex="1" parent="eOQ8HIZeuh8u5lp4IAcC-19">
          <mxGeometry y="66" width="360" height="26" as="geometry" />
        </mxCell>
        <mxCell id="eOQ8HIZeuh8u5lp4IAcC-24" value="&lt;u&gt;- CLEAR_FLAG: String&lt;/u&gt;" style="text;strokeColor=none;fillColor=none;align=left;verticalAlign=top;spacingLeft=4;spacingRight=4;overflow=hidden;rotatable=0;points=[[0,0.5],[1,0.5]];portConstraint=eastwest;whiteSpace=wrap;html=1;" vertex="1" parent="eOQ8HIZeuh8u5lp4IAcC-19">
          <mxGeometry y="92" width="360" height="26" as="geometry" />
        </mxCell>
        <mxCell id="eOQ8HIZeuh8u5lp4IAcC-32" value="&lt;u&gt;- allLogAppender: List&amp;lt;LogAppender&amp;gt;&lt;/u&gt;" style="text;strokeColor=none;fillColor=none;align=left;verticalAlign=top;spacingLeft=4;spacingRight=4;overflow=hidden;rotatable=0;points=[[0,0.5],[1,0.5]];portConstraint=eastwest;whiteSpace=wrap;html=1;" vertex="1" parent="eOQ8HIZeuh8u5lp4IAcC-19">
          <mxGeometry y="118" width="360" height="26" as="geometry" />
        </mxCell>
        <mxCell id="eOQ8HIZeuh8u5lp4IAcC-22" value="# appender: List&amp;lt;LogAppender&amp;gt;" style="text;strokeColor=none;fillColor=none;align=left;verticalAlign=top;spacingLeft=4;spacingRight=4;overflow=hidden;rotatable=0;points=[[0,0.5],[1,0.5]];portConstraint=eastwest;whiteSpace=wrap;html=1;" vertex="1" parent="eOQ8HIZeuh8u5lp4IAcC-19">
          <mxGeometry y="144" width="360" height="26" as="geometry" />
        </mxCell>
        <mxCell id="eOQ8HIZeuh8u5lp4IAcC-31" value="# nextHandler: LogHandler" style="text;strokeColor=none;fillColor=none;align=left;verticalAlign=top;spacingLeft=4;spacingRight=4;overflow=hidden;rotatable=0;points=[[0,0.5],[1,0.5]];portConstraint=eastwest;whiteSpace=wrap;html=1;" vertex="1" parent="eOQ8HIZeuh8u5lp4IAcC-19">
          <mxGeometry y="170" width="360" height="26" as="geometry" />
        </mxCell>
        <mxCell id="eOQ8HIZeuh8u5lp4IAcC-21" value="" style="line;strokeWidth=1;fillColor=none;align=left;verticalAlign=middle;spacingTop=-1;spacingLeft=3;spacingRight=3;rotatable=0;labelPosition=right;points=[];portConstraint=eastwest;strokeColor=inherit;" vertex="1" parent="eOQ8HIZeuh8u5lp4IAcC-19">
          <mxGeometry y="196" width="360" height="8" as="geometry" />
        </mxCell>
        <mxCell id="eOQ8HIZeuh8u5lp4IAcC-33" value="# initialiseFileAppenders(logLevel: String)" style="text;strokeColor=none;fillColor=none;align=left;verticalAlign=top;spacingLeft=4;spacingRight=4;overflow=hidden;rotatable=0;points=[[0,0.5],[1,0.5]];portConstraint=eastwest;whiteSpace=wrap;html=1;" vertex="1" parent="eOQ8HIZeuh8u5lp4IAcC-19">
          <mxGeometry y="204" width="360" height="26" as="geometry" />
        </mxCell>
        <mxCell id="eOQ8HIZeuh8u5lp4IAcC-43" value="+ setNextHandler()" style="text;strokeColor=none;fillColor=none;align=left;verticalAlign=top;spacingLeft=4;spacingRight=4;overflow=hidden;rotatable=0;points=[[0,0.5],[1,0.5]];portConstraint=eastwest;whiteSpace=wrap;html=1;" vertex="1" parent="eOQ8HIZeuh8u5lp4IAcC-19">
          <mxGeometry y="230" width="360" height="26" as="geometry" />
        </mxCell>
        <mxCell id="eOQ8HIZeuh8u5lp4IAcC-44" value="+ writeLog(message: Message)" style="text;strokeColor=none;fillColor=none;align=left;verticalAlign=top;spacingLeft=4;spacingRight=4;overflow=hidden;rotatable=0;points=[[0,0.5],[1,0.5]];portConstraint=eastwest;whiteSpace=wrap;html=1;" vertex="1" parent="eOQ8HIZeuh8u5lp4IAcC-19">
          <mxGeometry y="256" width="360" height="26" as="geometry" />
        </mxCell>
        <mxCell id="eOQ8HIZeuh8u5lp4IAcC-46" value="+ getCurrentLogLevel() -&amp;gt; abstract" style="text;strokeColor=none;fillColor=none;align=left;verticalAlign=top;spacingLeft=4;spacingRight=4;overflow=hidden;rotatable=0;points=[[0,0.5],[1,0.5]];portConstraint=eastwest;whiteSpace=wrap;html=1;" vertex="1" parent="eOQ8HIZeuh8u5lp4IAcC-19">
          <mxGeometry y="282" width="360" height="26" as="geometry" />
        </mxCell>
        <mxCell id="eOQ8HIZeuh8u5lp4IAcC-45" value="&lt;u&gt;+ getLogHandlerChain()&lt;/u&gt;" style="text;strokeColor=none;fillColor=none;align=left;verticalAlign=top;spacingLeft=4;spacingRight=4;overflow=hidden;rotatable=0;points=[[0,0.5],[1,0.5]];portConstraint=eastwest;whiteSpace=wrap;html=1;" vertex="1" parent="eOQ8HIZeuh8u5lp4IAcC-19">
          <mxGeometry y="308" width="360" height="26" as="geometry" />
        </mxCell>
        <mxCell id="eOQ8HIZeuh8u5lp4IAcC-51" value="DebugLogHandler" style="swimlane;fontStyle=1;align=center;verticalAlign=top;childLayout=stackLayout;horizontal=1;startSize=26;horizontalStack=0;resizeParent=1;resizeParentMax=0;resizeLast=0;collapsible=1;marginBottom=0;whiteSpace=wrap;html=1;" vertex="1" parent="WIyWlLk6GJQsqaUBKTNV-1">
          <mxGeometry x="1940" y="785.5" width="160" height="60" as="geometry" />
        </mxCell>
        <mxCell id="eOQ8HIZeuh8u5lp4IAcC-50" value="- LOG_LEVEL: String" style="text;strokeColor=none;fillColor=none;align=left;verticalAlign=top;spacingLeft=4;spacingRight=4;overflow=hidden;rotatable=0;points=[[0,0.5],[1,0.5]];portConstraint=eastwest;whiteSpace=wrap;html=1;" vertex="1" parent="eOQ8HIZeuh8u5lp4IAcC-51">
          <mxGeometry y="26" width="160" height="26" as="geometry" />
        </mxCell>
        <mxCell id="eOQ8HIZeuh8u5lp4IAcC-53" value="" style="line;strokeWidth=1;fillColor=none;align=left;verticalAlign=middle;spacingTop=-1;spacingLeft=3;spacingRight=3;rotatable=0;labelPosition=right;points=[];portConstraint=eastwest;strokeColor=inherit;" vertex="1" parent="eOQ8HIZeuh8u5lp4IAcC-51">
          <mxGeometry y="52" width="160" height="8" as="geometry" />
        </mxCell>
        <mxCell id="eOQ8HIZeuh8u5lp4IAcC-55" value="ErrorLogHandler" style="swimlane;fontStyle=1;align=center;verticalAlign=top;childLayout=stackLayout;horizontal=1;startSize=26;horizontalStack=0;resizeParent=1;resizeParentMax=0;resizeLast=0;collapsible=1;marginBottom=0;whiteSpace=wrap;html=1;" vertex="1" parent="WIyWlLk6GJQsqaUBKTNV-1">
          <mxGeometry x="2140" y="785.5" width="160" height="60" as="geometry" />
        </mxCell>
        <mxCell id="eOQ8HIZeuh8u5lp4IAcC-56" value="- LOG_LEVEL: String" style="text;strokeColor=none;fillColor=none;align=left;verticalAlign=top;spacingLeft=4;spacingRight=4;overflow=hidden;rotatable=0;points=[[0,0.5],[1,0.5]];portConstraint=eastwest;whiteSpace=wrap;html=1;" vertex="1" parent="eOQ8HIZeuh8u5lp4IAcC-55">
          <mxGeometry y="26" width="160" height="26" as="geometry" />
        </mxCell>
        <mxCell id="eOQ8HIZeuh8u5lp4IAcC-57" value="" style="line;strokeWidth=1;fillColor=none;align=left;verticalAlign=middle;spacingTop=-1;spacingLeft=3;spacingRight=3;rotatable=0;labelPosition=right;points=[];portConstraint=eastwest;strokeColor=inherit;" vertex="1" parent="eOQ8HIZeuh8u5lp4IAcC-55">
          <mxGeometry y="52" width="160" height="8" as="geometry" />
        </mxCell>
        <mxCell id="eOQ8HIZeuh8u5lp4IAcC-58" value="InfoLogHandler" style="swimlane;fontStyle=1;align=center;verticalAlign=top;childLayout=stackLayout;horizontal=1;startSize=26;horizontalStack=0;resizeParent=1;resizeParentMax=0;resizeLast=0;collapsible=1;marginBottom=0;whiteSpace=wrap;html=1;" vertex="1" parent="WIyWlLk6GJQsqaUBKTNV-1">
          <mxGeometry x="2540" y="785.5" width="160" height="60" as="geometry" />
        </mxCell>
        <mxCell id="eOQ8HIZeuh8u5lp4IAcC-59" value="- LOG_LEVEL: String" style="text;strokeColor=none;fillColor=none;align=left;verticalAlign=top;spacingLeft=4;spacingRight=4;overflow=hidden;rotatable=0;points=[[0,0.5],[1,0.5]];portConstraint=eastwest;whiteSpace=wrap;html=1;" vertex="1" parent="eOQ8HIZeuh8u5lp4IAcC-58">
          <mxGeometry y="26" width="160" height="26" as="geometry" />
        </mxCell>
        <mxCell id="eOQ8HIZeuh8u5lp4IAcC-60" value="" style="line;strokeWidth=1;fillColor=none;align=left;verticalAlign=middle;spacingTop=-1;spacingLeft=3;spacingRight=3;rotatable=0;labelPosition=right;points=[];portConstraint=eastwest;strokeColor=inherit;" vertex="1" parent="eOQ8HIZeuh8u5lp4IAcC-58">
          <mxGeometry y="52" width="160" height="8" as="geometry" />
        </mxCell>
        <mxCell id="eOQ8HIZeuh8u5lp4IAcC-61" value="FatalLogHandler" style="swimlane;fontStyle=1;align=center;verticalAlign=top;childLayout=stackLayout;horizontal=1;startSize=26;horizontalStack=0;resizeParent=1;resizeParentMax=0;resizeLast=0;collapsible=1;marginBottom=0;whiteSpace=wrap;html=1;" vertex="1" parent="WIyWlLk6GJQsqaUBKTNV-1">
          <mxGeometry x="2340" y="785.5" width="160" height="60" as="geometry" />
        </mxCell>
        <mxCell id="eOQ8HIZeuh8u5lp4IAcC-62" value="- LOG_LEVEL: String" style="text;strokeColor=none;fillColor=none;align=left;verticalAlign=top;spacingLeft=4;spacingRight=4;overflow=hidden;rotatable=0;points=[[0,0.5],[1,0.5]];portConstraint=eastwest;whiteSpace=wrap;html=1;" vertex="1" parent="eOQ8HIZeuh8u5lp4IAcC-61">
          <mxGeometry y="26" width="160" height="26" as="geometry" />
        </mxCell>
        <mxCell id="eOQ8HIZeuh8u5lp4IAcC-63" value="" style="line;strokeWidth=1;fillColor=none;align=left;verticalAlign=middle;spacingTop=-1;spacingLeft=3;spacingRight=3;rotatable=0;labelPosition=right;points=[];portConstraint=eastwest;strokeColor=inherit;" vertex="1" parent="eOQ8HIZeuh8u5lp4IAcC-61">
          <mxGeometry y="52" width="160" height="8" as="geometry" />
        </mxCell>
        <mxCell id="eOQ8HIZeuh8u5lp4IAcC-65" value="WarnLogHandler" style="swimlane;fontStyle=1;align=center;verticalAlign=top;childLayout=stackLayout;horizontal=1;startSize=26;horizontalStack=0;resizeParent=1;resizeParentMax=0;resizeLast=0;collapsible=1;marginBottom=0;whiteSpace=wrap;html=1;" vertex="1" parent="WIyWlLk6GJQsqaUBKTNV-1">
          <mxGeometry x="2940" y="785.5" width="160" height="60" as="geometry" />
        </mxCell>
        <mxCell id="eOQ8HIZeuh8u5lp4IAcC-66" value="- LOG_LEVEL: String" style="text;strokeColor=none;fillColor=none;align=left;verticalAlign=top;spacingLeft=4;spacingRight=4;overflow=hidden;rotatable=0;points=[[0,0.5],[1,0.5]];portConstraint=eastwest;whiteSpace=wrap;html=1;" vertex="1" parent="eOQ8HIZeuh8u5lp4IAcC-65">
          <mxGeometry y="26" width="160" height="26" as="geometry" />
        </mxCell>
        <mxCell id="eOQ8HIZeuh8u5lp4IAcC-67" value="" style="line;strokeWidth=1;fillColor=none;align=left;verticalAlign=middle;spacingTop=-1;spacingLeft=3;spacingRight=3;rotatable=0;labelPosition=right;points=[];portConstraint=eastwest;strokeColor=inherit;" vertex="1" parent="eOQ8HIZeuh8u5lp4IAcC-65">
          <mxGeometry y="52" width="160" height="8" as="geometry" />
        </mxCell>
        <mxCell id="eOQ8HIZeuh8u5lp4IAcC-68" value="TraceLogHandler" style="swimlane;fontStyle=1;align=center;verticalAlign=top;childLayout=stackLayout;horizontal=1;startSize=26;horizontalStack=0;resizeParent=1;resizeParentMax=0;resizeLast=0;collapsible=1;marginBottom=0;whiteSpace=wrap;html=1;" vertex="1" parent="WIyWlLk6GJQsqaUBKTNV-1">
          <mxGeometry x="2740" y="785.5" width="160" height="60" as="geometry" />
        </mxCell>
        <mxCell id="eOQ8HIZeuh8u5lp4IAcC-69" value="- LOG_LEVEL: String" style="text;strokeColor=none;fillColor=none;align=left;verticalAlign=top;spacingLeft=4;spacingRight=4;overflow=hidden;rotatable=0;points=[[0,0.5],[1,0.5]];portConstraint=eastwest;whiteSpace=wrap;html=1;" vertex="1" parent="eOQ8HIZeuh8u5lp4IAcC-68">
          <mxGeometry y="26" width="160" height="26" as="geometry" />
        </mxCell>
        <mxCell id="eOQ8HIZeuh8u5lp4IAcC-70" value="" style="line;strokeWidth=1;fillColor=none;align=left;verticalAlign=middle;spacingTop=-1;spacingLeft=3;spacingRight=3;rotatable=0;labelPosition=right;points=[];portConstraint=eastwest;strokeColor=inherit;" vertex="1" parent="eOQ8HIZeuh8u5lp4IAcC-68">
          <mxGeometry y="52" width="160" height="8" as="geometry" />
        </mxCell>
        <mxCell id="eOQ8HIZeuh8u5lp4IAcC-71" value="Extends" style="endArrow=block;endSize=16;endFill=0;html=1;rounded=0;exitX=0.5;exitY=0;exitDx=0;exitDy=0;entryX=0.494;entryY=1.115;entryDx=0;entryDy=0;entryPerimeter=0;" edge="1" parent="WIyWlLk6GJQsqaUBKTNV-1" source="eOQ8HIZeuh8u5lp4IAcC-61" target="eOQ8HIZeuh8u5lp4IAcC-45">
          <mxGeometry width="160" relative="1" as="geometry">
            <mxPoint x="1950" y="980" as="sourcePoint" />
            <mxPoint x="2110" y="980" as="targetPoint" />
          </mxGeometry>
        </mxCell>
        <mxCell id="eOQ8HIZeuh8u5lp4IAcC-72" value="Extends" style="endArrow=block;endSize=16;endFill=0;html=1;rounded=0;exitX=0.5;exitY=0;exitDx=0;exitDy=0;entryX=0.587;entryY=1.179;entryDx=0;entryDy=0;entryPerimeter=0;" edge="1" parent="WIyWlLk6GJQsqaUBKTNV-1" source="eOQ8HIZeuh8u5lp4IAcC-58" target="eOQ8HIZeuh8u5lp4IAcC-45">
          <mxGeometry width="160" relative="1" as="geometry">
            <mxPoint x="1930" y="1010" as="sourcePoint" />
            <mxPoint x="2090" y="1010" as="targetPoint" />
          </mxGeometry>
        </mxCell>
        <mxCell id="eOQ8HIZeuh8u5lp4IAcC-73" value="Extends" style="endArrow=block;endSize=16;endFill=0;html=1;rounded=0;exitX=0.5;exitY=0;exitDx=0;exitDy=0;entryX=0.417;entryY=1.231;entryDx=0;entryDy=0;entryPerimeter=0;" edge="1" parent="WIyWlLk6GJQsqaUBKTNV-1" source="eOQ8HIZeuh8u5lp4IAcC-55" target="eOQ8HIZeuh8u5lp4IAcC-45">
          <mxGeometry width="160" relative="1" as="geometry">
            <mxPoint x="1930" y="1010" as="sourcePoint" />
            <mxPoint x="2090" y="1010" as="targetPoint" />
          </mxGeometry>
        </mxCell>
        <mxCell id="eOQ8HIZeuh8u5lp4IAcC-74" value="Extends" style="endArrow=block;endSize=16;endFill=0;html=1;rounded=0;exitX=0.5;exitY=0;exitDx=0;exitDy=0;entryX=0.665;entryY=1.083;entryDx=0;entryDy=0;entryPerimeter=0;" edge="1" parent="WIyWlLk6GJQsqaUBKTNV-1" source="eOQ8HIZeuh8u5lp4IAcC-68" target="eOQ8HIZeuh8u5lp4IAcC-45">
          <mxGeometry width="160" relative="1" as="geometry">
            <mxPoint x="1930" y="1010" as="sourcePoint" />
            <mxPoint x="2090" y="1010" as="targetPoint" />
          </mxGeometry>
        </mxCell>
        <mxCell id="eOQ8HIZeuh8u5lp4IAcC-75" value="Extends" style="endArrow=block;endSize=16;endFill=0;html=1;rounded=0;exitX=0.5;exitY=0;exitDx=0;exitDy=0;entryX=0.194;entryY=1.231;entryDx=0;entryDy=0;entryPerimeter=0;" edge="1" parent="WIyWlLk6GJQsqaUBKTNV-1" source="eOQ8HIZeuh8u5lp4IAcC-51" target="eOQ8HIZeuh8u5lp4IAcC-45">
          <mxGeometry width="160" relative="1" as="geometry">
            <mxPoint x="1930" y="1010" as="sourcePoint" />
            <mxPoint x="2090" y="1010" as="targetPoint" />
          </mxGeometry>
        </mxCell>
        <mxCell id="eOQ8HIZeuh8u5lp4IAcC-76" value="Extends" style="endArrow=block;endSize=16;endFill=0;html=1;rounded=0;exitX=0.5;exitY=0;exitDx=0;exitDy=0;entryX=0.776;entryY=1.179;entryDx=0;entryDy=0;entryPerimeter=0;" edge="1" parent="WIyWlLk6GJQsqaUBKTNV-1" source="eOQ8HIZeuh8u5lp4IAcC-65" target="eOQ8HIZeuh8u5lp4IAcC-45">
          <mxGeometry width="160" relative="1" as="geometry">
            <mxPoint x="1850" y="1010" as="sourcePoint" />
            <mxPoint x="2010" y="1010" as="targetPoint" />
          </mxGeometry>
        </mxCell>
        <mxCell id="eOQ8HIZeuh8u5lp4IAcC-77" value="&amp;lt;&amp;lt;enum&amp;gt;&amp;gt;&lt;br&gt;LogLevel" style="swimlane;fontStyle=0;childLayout=stackLayout;horizontal=1;startSize=40;fillColor=none;horizontalStack=0;resizeParent=1;resizeParentMax=0;resizeLast=0;collapsible=1;marginBottom=0;whiteSpace=wrap;html=1;" vertex="1" parent="WIyWlLk6GJQsqaUBKTNV-1">
          <mxGeometry x="1950" y="1100" width="140" height="196" as="geometry" />
        </mxCell>
        <mxCell id="eOQ8HIZeuh8u5lp4IAcC-78" value="TRACE: trace" style="text;strokeColor=none;fillColor=none;align=left;verticalAlign=top;spacingLeft=4;spacingRight=4;overflow=hidden;rotatable=0;points=[[0,0.5],[1,0.5]];portConstraint=eastwest;whiteSpace=wrap;html=1;" vertex="1" parent="eOQ8HIZeuh8u5lp4IAcC-77">
          <mxGeometry y="40" width="140" height="26" as="geometry" />
        </mxCell>
        <mxCell id="eOQ8HIZeuh8u5lp4IAcC-79" value="DEBUG: debug" style="text;strokeColor=none;fillColor=none;align=left;verticalAlign=top;spacingLeft=4;spacingRight=4;overflow=hidden;rotatable=0;points=[[0,0.5],[1,0.5]];portConstraint=eastwest;whiteSpace=wrap;html=1;" vertex="1" parent="eOQ8HIZeuh8u5lp4IAcC-77">
          <mxGeometry y="66" width="140" height="26" as="geometry" />
        </mxCell>
        <mxCell id="eOQ8HIZeuh8u5lp4IAcC-80" value="INFO: info" style="text;strokeColor=none;fillColor=none;align=left;verticalAlign=top;spacingLeft=4;spacingRight=4;overflow=hidden;rotatable=0;points=[[0,0.5],[1,0.5]];portConstraint=eastwest;whiteSpace=wrap;html=1;" vertex="1" parent="eOQ8HIZeuh8u5lp4IAcC-77">
          <mxGeometry y="92" width="140" height="26" as="geometry" />
        </mxCell>
        <mxCell id="eOQ8HIZeuh8u5lp4IAcC-81" value="WARN: warn" style="text;strokeColor=none;fillColor=none;align=left;verticalAlign=top;spacingLeft=4;spacingRight=4;overflow=hidden;rotatable=0;points=[[0,0.5],[1,0.5]];portConstraint=eastwest;whiteSpace=wrap;html=1;" vertex="1" parent="eOQ8HIZeuh8u5lp4IAcC-77">
          <mxGeometry y="118" width="140" height="26" as="geometry" />
        </mxCell>
        <mxCell id="eOQ8HIZeuh8u5lp4IAcC-82" value="ERROR: error" style="text;strokeColor=none;fillColor=none;align=left;verticalAlign=top;spacingLeft=4;spacingRight=4;overflow=hidden;rotatable=0;points=[[0,0.5],[1,0.5]];portConstraint=eastwest;whiteSpace=wrap;html=1;" vertex="1" parent="eOQ8HIZeuh8u5lp4IAcC-77">
          <mxGeometry y="144" width="140" height="26" as="geometry" />
        </mxCell>
        <mxCell id="eOQ8HIZeuh8u5lp4IAcC-83" value="FATAL: fatal" style="text;strokeColor=none;fillColor=none;align=left;verticalAlign=top;spacingLeft=4;spacingRight=4;overflow=hidden;rotatable=0;points=[[0,0.5],[1,0.5]];portConstraint=eastwest;whiteSpace=wrap;html=1;" vertex="1" parent="eOQ8HIZeuh8u5lp4IAcC-77">
          <mxGeometry y="170" width="140" height="26" as="geometry" />
        </mxCell>
        <mxCell id="eOQ8HIZeuh8u5lp4IAcC-84" value="Message" style="swimlane;fontStyle=1;align=center;verticalAlign=top;childLayout=stackLayout;horizontal=1;startSize=26;horizontalStack=0;resizeParent=1;resizeParentMax=0;resizeLast=0;collapsible=1;marginBottom=0;whiteSpace=wrap;html=1;" vertex="1" parent="WIyWlLk6GJQsqaUBKTNV-1">
          <mxGeometry x="1540" y="1100" width="250" height="268" as="geometry" />
        </mxCell>
        <mxCell id="eOQ8HIZeuh8u5lp4IAcC-85" value="- timestamp: LocalDateTime" style="text;strokeColor=none;fillColor=none;align=left;verticalAlign=top;spacingLeft=4;spacingRight=4;overflow=hidden;rotatable=0;points=[[0,0.5],[1,0.5]];portConstraint=eastwest;whiteSpace=wrap;html=1;" vertex="1" parent="eOQ8HIZeuh8u5lp4IAcC-84">
          <mxGeometry y="26" width="250" height="26" as="geometry" />
        </mxCell>
        <mxCell id="eOQ8HIZeuh8u5lp4IAcC-87" value="- level: LogLevel" style="text;strokeColor=none;fillColor=none;align=left;verticalAlign=top;spacingLeft=4;spacingRight=4;overflow=hidden;rotatable=0;points=[[0,0.5],[1,0.5]];portConstraint=eastwest;whiteSpace=wrap;html=1;" vertex="1" parent="eOQ8HIZeuh8u5lp4IAcC-84">
          <mxGeometry y="52" width="250" height="26" as="geometry" />
        </mxCell>
        <mxCell id="eOQ8HIZeuh8u5lp4IAcC-88" value="- logMessage: String" style="text;strokeColor=none;fillColor=none;align=left;verticalAlign=top;spacingLeft=4;spacingRight=4;overflow=hidden;rotatable=0;points=[[0,0.5],[1,0.5]];portConstraint=eastwest;whiteSpace=wrap;html=1;" vertex="1" parent="eOQ8HIZeuh8u5lp4IAcC-84">
          <mxGeometry y="78" width="250" height="26" as="geometry" />
        </mxCell>
        <mxCell id="eOQ8HIZeuh8u5lp4IAcC-86" value="" style="line;strokeWidth=1;fillColor=none;align=left;verticalAlign=middle;spacingTop=-1;spacingLeft=3;spacingRight=3;rotatable=0;labelPosition=right;points=[];portConstraint=eastwest;strokeColor=inherit;" vertex="1" parent="eOQ8HIZeuh8u5lp4IAcC-84">
          <mxGeometry y="104" width="250" height="8" as="geometry" />
        </mxCell>
        <mxCell id="eOQ8HIZeuh8u5lp4IAcC-89" value="+ getTimestamp(): LocalDateTime" style="text;strokeColor=none;fillColor=none;align=left;verticalAlign=top;spacingLeft=4;spacingRight=4;overflow=hidden;rotatable=0;points=[[0,0.5],[1,0.5]];portConstraint=eastwest;whiteSpace=wrap;html=1;" vertex="1" parent="eOQ8HIZeuh8u5lp4IAcC-84">
          <mxGeometry y="112" width="250" height="26" as="geometry" />
        </mxCell>
        <mxCell id="eOQ8HIZeuh8u5lp4IAcC-90" value="+ setTimestamp(timestamp: LocalDateTime)" style="text;strokeColor=none;fillColor=none;align=left;verticalAlign=top;spacingLeft=4;spacingRight=4;overflow=hidden;rotatable=0;points=[[0,0.5],[1,0.5]];portConstraint=eastwest;whiteSpace=wrap;html=1;" vertex="1" parent="eOQ8HIZeuh8u5lp4IAcC-84">
          <mxGeometry y="138" width="250" height="26" as="geometry" />
        </mxCell>
        <mxCell id="eOQ8HIZeuh8u5lp4IAcC-91" value="+ getLevel(): LogLevel" style="text;strokeColor=none;fillColor=none;align=left;verticalAlign=top;spacingLeft=4;spacingRight=4;overflow=hidden;rotatable=0;points=[[0,0.5],[1,0.5]];portConstraint=eastwest;whiteSpace=wrap;html=1;" vertex="1" parent="eOQ8HIZeuh8u5lp4IAcC-84">
          <mxGeometry y="164" width="250" height="26" as="geometry" />
        </mxCell>
        <mxCell id="eOQ8HIZeuh8u5lp4IAcC-92" value="+ setLevel(level: LogLevel):&amp;nbsp;" style="text;strokeColor=none;fillColor=none;align=left;verticalAlign=top;spacingLeft=4;spacingRight=4;overflow=hidden;rotatable=0;points=[[0,0.5],[1,0.5]];portConstraint=eastwest;whiteSpace=wrap;html=1;" vertex="1" parent="eOQ8HIZeuh8u5lp4IAcC-84">
          <mxGeometry y="190" width="250" height="26" as="geometry" />
        </mxCell>
        <mxCell id="eOQ8HIZeuh8u5lp4IAcC-94" value="+ getLogMessage(): String" style="text;strokeColor=none;fillColor=none;align=left;verticalAlign=top;spacingLeft=4;spacingRight=4;overflow=hidden;rotatable=0;points=[[0,0.5],[1,0.5]];portConstraint=eastwest;whiteSpace=wrap;html=1;" vertex="1" parent="eOQ8HIZeuh8u5lp4IAcC-84">
          <mxGeometry y="216" width="250" height="26" as="geometry" />
        </mxCell>
        <mxCell id="eOQ8HIZeuh8u5lp4IAcC-93" value="+ setLogMessage(logMessage: String)" style="text;strokeColor=none;fillColor=none;align=left;verticalAlign=top;spacingLeft=4;spacingRight=4;overflow=hidden;rotatable=0;points=[[0,0.5],[1,0.5]];portConstraint=eastwest;whiteSpace=wrap;html=1;" vertex="1" parent="eOQ8HIZeuh8u5lp4IAcC-84">
          <mxGeometry y="242" width="250" height="26" as="geometry" />
        </mxCell>
        <mxCell id="eOQ8HIZeuh8u5lp4IAcC-96" value="" style="endArrow=diamondThin;endFill=1;endSize=24;html=1;rounded=0;entryX=1;entryY=0.5;entryDx=0;entryDy=0;exitX=0.5;exitY=0;exitDx=0;exitDy=0;" edge="1" parent="WIyWlLk6GJQsqaUBKTNV-1" source="eOQ8HIZeuh8u5lp4IAcC-77" target="eOQ8HIZeuh8u5lp4IAcC-87">
          <mxGeometry width="160" relative="1" as="geometry">
            <mxPoint x="1680" y="830" as="sourcePoint" />
            <mxPoint x="1840" y="830" as="targetPoint" />
            <Array as="points">
              <mxPoint x="2020" y="1050" />
              <mxPoint x="1840" y="1050" />
              <mxPoint x="1840" y="1165" />
            </Array>
          </mxGeometry>
        </mxCell>
        <mxCell id="eOQ8HIZeuh8u5lp4IAcC-97" value="" style="endArrow=diamondThin;endFill=0;endSize=24;html=1;rounded=0;entryX=0;entryY=0.5;entryDx=0;entryDy=0;exitX=0.5;exitY=0;exitDx=0;exitDy=0;" edge="1" parent="WIyWlLk6GJQsqaUBKTNV-1" source="eOQ8HIZeuh8u5lp4IAcC-2" target="eOQ8HIZeuh8u5lp4IAcC-22">
          <mxGeometry width="160" relative="1" as="geometry">
            <mxPoint x="1660" y="680" as="sourcePoint" />
            <mxPoint x="1820" y="680" as="targetPoint" />
            <Array as="points">
              <mxPoint x="1280" y="280" />
              <mxPoint x="2160" y="280" />
              <mxPoint x="2160" y="516" />
            </Array>
          </mxGeometry>
        </mxCell>
        <mxCell id="eOQ8HIZeuh8u5lp4IAcC-98" value="Use" style="endArrow=open;endSize=12;dashed=1;html=1;rounded=0;exitX=0;exitY=0.5;exitDx=0;exitDy=0;entryX=0.5;entryY=0;entryDx=0;entryDy=0;" edge="1" parent="WIyWlLk6GJQsqaUBKTNV-1" source="eOQ8HIZeuh8u5lp4IAcC-44" target="eOQ8HIZeuh8u5lp4IAcC-84">
          <mxGeometry width="160" relative="1" as="geometry">
            <mxPoint x="1430" y="1140" as="sourcePoint" />
            <mxPoint x="1590" y="1140" as="targetPoint" />
            <Array as="points">
              <mxPoint x="1665" y="628" />
            </Array>
          </mxGeometry>
        </mxCell>
        <mxCell id="eOQ8HIZeuh8u5lp4IAcC-99" value="Use" style="endArrow=open;endSize=12;dashed=1;html=1;rounded=0;entryX=0.25;entryY=0;entryDx=0;entryDy=0;" edge="1" parent="WIyWlLk6GJQsqaUBKTNV-1" source="eOQ8HIZeuh8u5lp4IAcC-14" target="eOQ8HIZeuh8u5lp4IAcC-84">
          <mxGeometry width="160" relative="1" as="geometry">
            <mxPoint x="1370" y="930" as="sourcePoint" />
            <mxPoint x="1530" y="930" as="targetPoint" />
            <Array as="points">
              <mxPoint x="1425" y="790" />
              <mxPoint x="1603" y="790" />
            </Array>
          </mxGeometry>
        </mxCell>
      </root>
    </mxGraphModel>
  </diagram>
</mxfile>
